<svg width="800" height="150" viewBox="0 0 800 150" fill="none" xmlns="http://www.w3.org/2000/svg">
<rect width="800" height="150" fill="#FF8904"/>
<path d="M182.574 53.5781H211.051V60.8438H191.363V71.1562H209.586V78.4219H191.363V88.7344H211.109V96H182.574V53.5781ZM237.27 96H227.544L216.411 64.1836H225.552L232.231 87.0352H232.583L239.263 64.1836H248.462L237.27 96ZM267.24 96.6445C264.017 96.6445 261.224 95.9805 258.861 94.6523C256.517 93.3242 254.711 91.4297 253.441 88.9688C252.171 86.4883 251.537 83.5781 251.537 80.2383C251.537 76.9766 252.162 74.1055 253.412 71.625C254.681 69.125 256.478 67.1914 258.802 65.8242C261.127 64.457 263.822 63.7734 266.888 63.7734C269.74 63.7734 272.289 64.3789 274.535 65.5898C276.8 66.7812 278.578 68.5879 279.867 71.0098C281.175 73.4316 281.83 76.3906 281.83 79.8867V82.3477H260.091C260.091 83.9297 260.384 85.3066 260.97 86.4785C261.576 87.6504 262.425 88.5586 263.519 89.2031C264.632 89.8281 265.931 90.1406 267.416 90.1406C268.841 90.1406 270.072 89.8574 271.107 89.291C272.142 88.7051 272.884 87.9141 273.334 86.918H281.595C281.185 88.8711 280.345 90.5801 279.076 92.0449C277.806 93.5098 276.156 94.6426 274.125 95.4434C272.113 96.2441 269.818 96.6445 267.24 96.6445ZM273.627 76.8984C273.627 75.6289 273.343 74.4961 272.777 73.5C272.23 72.4844 271.459 71.6934 270.463 71.127C269.466 70.5605 268.334 70.2773 267.064 70.2773C265.775 70.2773 264.603 70.5703 263.548 71.1562C262.513 71.7422 261.683 72.543 261.058 73.5586C260.453 74.5742 260.13 75.6875 260.091 76.8984H273.627ZM297.151 96H288.479V64.1836H296.741V69.75H297.092C297.834 67.875 299.036 66.4102 300.696 65.3555C302.356 64.3008 304.338 63.7734 306.643 63.7734C308.85 63.7734 310.784 64.252 312.444 65.209C314.104 66.166 315.383 67.5527 316.282 69.3691C317.18 71.166 317.62 73.2852 317.6 75.7266V96H308.987V77.25C308.987 75.2969 308.479 73.7637 307.463 72.6504C306.448 71.5371 305.041 70.9805 303.245 70.9805C301.389 70.9805 299.905 71.5664 298.791 72.7383C297.698 73.9102 297.151 75.5312 297.151 77.6016V96ZM342.296 70.6875H336.32V86.2148C336.32 87.3867 336.573 88.207 337.081 88.6758C337.589 89.1445 338.331 89.3984 339.308 89.4375C340.558 89.4375 341.71 89.3789 342.765 89.2617V96.1172C341.73 96.3125 340.187 96.4102 338.136 96.4102C334.874 96.4102 332.306 95.6582 330.431 94.1543C328.556 92.6504 327.628 90.4141 327.648 87.4453V70.6875H323.253V64.1836H327.648V56.5664H336.32V64.1836H342.296V70.6875ZM364.149 53.5781H381.024C384.071 53.5781 386.649 54.0371 388.759 54.9551C390.868 55.873 392.45 57.1523 393.505 58.793C394.559 60.4141 395.087 62.3086 395.087 64.4766C395.087 66.8789 394.384 68.8613 392.977 70.4238C391.591 71.9863 389.755 73.0312 387.47 73.5586V73.9688C389.11 74.0469 390.634 74.5156 392.04 75.375C393.466 76.2344 394.608 77.4355 395.468 78.9785C396.346 80.502 396.786 82.2695 396.786 84.2812C396.786 86.5664 396.22 88.5879 395.087 90.3457C393.973 92.1035 392.313 93.4902 390.106 94.5059C387.919 95.502 385.262 96 382.137 96H364.149V53.5781ZM380.38 88.7344C382.841 88.7344 384.667 88.2754 385.858 87.3574C387.05 86.4199 387.645 85.1211 387.645 83.4609C387.645 82.2695 387.352 81.2148 386.766 80.2969C386.2 79.3789 385.389 78.666 384.335 78.1582C383.28 77.6309 382.04 77.3672 380.614 77.3672H372.938V88.7344H380.38ZM379.735 71.332C380.966 71.332 382.069 71.1172 383.046 70.6875C384.022 70.2383 384.784 69.6035 385.331 68.7832C385.897 67.9629 386.18 66.9961 386.18 65.8828C386.18 64.3203 385.624 63.0703 384.511 62.1328C383.417 61.1953 381.884 60.7266 379.911 60.7266H372.938V71.332H379.735ZM401.853 87.0938C401.853 83.8125 402.957 81.4102 405.164 79.8867C407.371 78.3633 410.212 77.5039 413.689 77.3086C415.837 77.1719 418.474 77.0352 421.599 76.8984V74.3203C421.56 72.9922 421.101 71.957 420.222 71.2148C419.343 70.4727 418.103 70.1016 416.502 70.1016C415.056 70.1016 413.875 70.4141 412.957 71.0391C412.039 71.6641 411.462 72.5234 411.228 73.6172H402.966C403.142 71.7422 403.787 70.0625 404.9 68.5781C406.033 67.0938 407.605 65.9219 409.617 65.0625C411.629 64.2031 414.002 63.7734 416.736 63.7734C419.158 63.7734 421.384 64.1543 423.416 64.916C425.466 65.6777 427.107 66.8691 428.337 68.4902C429.587 70.0918 430.212 72.1133 430.212 74.5547V96H422.009V91.6055H421.775C420.935 93.1484 419.734 94.3691 418.171 95.2676C416.629 96.1465 414.724 96.5859 412.459 96.5859C410.388 96.5859 408.552 96.2344 406.951 95.5312C405.369 94.8086 404.119 93.7344 403.201 92.3086C402.302 90.8828 401.853 89.1445 401.853 87.0938ZM410.173 86.8594C410.173 88.0508 410.603 88.9785 411.462 89.6426C412.341 90.2871 413.494 90.6094 414.92 90.6094C416.209 90.6094 417.361 90.3457 418.377 89.8184C419.412 89.291 420.212 88.5684 420.779 87.6504C421.345 86.7324 421.619 85.7266 421.599 84.6328V82.3184C420.681 82.3379 419.548 82.3867 418.201 82.4648C416.853 82.543 415.818 82.6211 415.095 82.6992C413.572 82.8555 412.371 83.2852 411.492 83.9883C410.613 84.6914 410.173 85.6484 410.173 86.8594ZM446.705 96H438.034V64.1836H446.295V69.75H446.647C447.389 67.875 448.59 66.4102 450.25 65.3555C451.911 64.3008 453.893 63.7734 456.198 63.7734C458.405 63.7734 460.338 64.252 461.998 65.209C463.659 66.166 464.938 67.5527 465.836 69.3691C466.735 71.166 467.174 73.2852 467.155 75.7266V96H458.541V77.25C458.541 75.2969 458.034 73.7637 457.018 72.6504C456.002 71.5371 454.596 70.9805 452.799 70.9805C450.944 70.9805 449.459 71.5664 448.346 72.7383C447.252 73.9102 446.705 75.5312 446.705 77.6016V96ZM483.765 96H475.093V64.1836H483.355V69.75H483.706C484.448 67.875 485.65 66.4102 487.31 65.3555C488.97 64.3008 490.952 63.7734 493.257 63.7734C495.464 63.7734 497.398 64.252 499.058 65.209C500.718 66.166 501.997 67.5527 502.896 69.3691C503.794 71.166 504.234 73.2852 504.214 75.7266V96H495.601V77.25C495.601 75.2969 495.093 73.7637 494.077 72.6504C493.062 71.5371 491.655 70.9805 489.859 70.9805C488.003 70.9805 486.519 71.5664 485.405 72.7383C484.312 73.9102 483.765 75.5312 483.765 77.6016V96ZM526.566 96.6445C523.344 96.6445 520.551 95.9805 518.188 94.6523C515.844 93.3242 514.037 91.4297 512.768 88.9688C511.498 86.4883 510.863 83.5781 510.863 80.2383C510.863 76.9766 511.488 74.1055 512.738 71.625C514.008 69.125 515.805 67.1914 518.129 65.8242C520.453 64.457 523.148 63.7734 526.215 63.7734C529.066 63.7734 531.615 64.3789 533.861 65.5898C536.127 66.7812 537.904 68.5879 539.193 71.0098C540.502 73.4316 541.156 76.3906 541.156 79.8867V82.3477H519.418C519.418 83.9297 519.711 85.3066 520.297 86.4785C520.902 87.6504 521.752 88.5586 522.846 89.2031C523.959 89.8281 525.258 90.1406 526.742 90.1406C528.168 90.1406 529.398 89.8574 530.434 89.291C531.469 88.7051 532.211 87.9141 532.66 86.918H540.922C540.512 88.8711 539.672 90.5801 538.402 92.0449C537.133 93.5098 535.482 94.6426 533.451 95.4434C531.439 96.2441 529.145 96.6445 526.566 96.6445ZM532.953 76.8984C532.953 75.6289 532.67 74.4961 532.104 73.5C531.557 72.4844 530.785 71.6934 529.789 71.127C528.793 70.5605 527.66 70.2773 526.391 70.2773C525.102 70.2773 523.93 70.5703 522.875 71.1562C521.84 71.7422 521.01 72.543 520.385 73.5586C519.779 74.5742 519.457 75.6875 519.418 76.8984H532.953ZM547.805 64.1836H556.184V69.6914H556.536C557.102 67.7578 558.069 66.2832 559.436 65.2676C560.804 64.2324 562.395 63.7148 564.212 63.7148C565.208 63.7148 566.126 63.8125 566.966 64.0078V71.7422C566.536 71.625 565.96 71.5176 565.237 71.4199C564.514 71.3223 563.86 71.2734 563.274 71.2734C561.985 71.2734 560.823 71.5566 559.788 72.123C558.753 72.6895 557.942 73.4805 557.356 74.4961C556.77 75.4922 556.477 76.625 556.477 77.8945V96H547.805V64.1836ZM587.295 89.6133L602.53 75.6094C604.034 74.1641 605.196 72.9629 606.016 72.0059C606.856 71.0488 607.5 70.1016 607.95 69.1641C608.399 68.207 608.623 67.1914 608.623 66.1172C608.623 64.8867 608.33 63.8125 607.745 62.8945C607.178 61.9766 606.377 61.2734 605.342 60.7852C604.327 60.2773 603.174 60.0234 601.885 60.0234C599.893 60.0234 598.301 60.6191 597.11 61.8105C595.918 62.9824 595.323 64.5742 595.323 66.5859H586.944C586.924 63.8516 587.539 61.459 588.789 59.4082C590.059 57.3574 591.836 55.7754 594.121 54.6621C596.407 53.5488 599.034 52.9922 602.002 52.9922C604.991 52.9922 607.627 53.5293 609.913 54.6035C612.198 55.6582 613.965 57.1328 615.215 59.0273C616.485 60.9219 617.12 63.0898 617.12 65.5312C617.12 67.1914 616.797 68.793 616.153 70.3359C615.508 71.8594 614.385 73.5684 612.784 75.4629C611.202 77.3379 608.955 79.5938 606.045 82.2305L599.6 88.5V88.7344H617.705V96H587.354L587.295 89.6133Z" fill="white"/>
</svg>
