<svg width="800" height="150" viewBox="0 0 800 150" fill="none" xmlns="http://www.w3.org/2000/svg">
<rect width="800" height="150" fill="#00C950"/>
<path d="M186.574 53.5781H215.051V60.8438H195.363V71.1562H213.586V78.4219H195.363V88.7344H215.109V96H186.574V53.5781ZM241.27 96H231.544L220.411 64.1836H229.552L236.231 87.0352H236.583L243.263 64.1836H252.462L241.27 96ZM271.24 96.6445C268.017 96.6445 265.224 95.9805 262.861 94.6523C260.517 93.3242 258.711 91.4297 257.441 88.9688C256.171 86.4883 255.537 83.5781 255.537 80.2383C255.537 76.9766 256.162 74.1055 257.412 71.625C258.681 69.125 260.478 67.1914 262.802 65.8242C265.127 64.457 267.822 63.7734 270.888 63.7734C273.74 63.7734 276.289 64.3789 278.535 65.5898C280.8 66.7812 282.578 68.5879 283.867 71.0098C285.175 73.4316 285.83 76.3906 285.83 79.8867V82.3477H264.091C264.091 83.9297 264.384 85.3066 264.97 86.4785C265.576 87.6504 266.425 88.5586 267.519 89.2031C268.632 89.8281 269.931 90.1406 271.416 90.1406C272.841 90.1406 274.072 89.8574 275.107 89.291C276.142 88.7051 276.884 87.9141 277.334 86.918H285.595C285.185 88.8711 284.345 90.5801 283.076 92.0449C281.806 93.5098 280.156 94.6426 278.125 95.4434C276.113 96.2441 273.818 96.6445 271.24 96.6445ZM277.627 76.8984C277.627 75.6289 277.343 74.4961 276.777 73.5C276.23 72.4844 275.459 71.6934 274.463 71.127C273.466 70.5605 272.334 70.2773 271.064 70.2773C269.775 70.2773 268.603 70.5703 267.548 71.1562C266.513 71.7422 265.683 72.543 265.058 73.5586C264.453 74.5742 264.13 75.6875 264.091 76.8984H277.627ZM301.151 96H292.479V64.1836H300.741V69.75H301.092C301.834 67.875 303.036 66.4102 304.696 65.3555C306.356 64.3008 308.338 63.7734 310.643 63.7734C312.85 63.7734 314.784 64.252 316.444 65.209C318.104 66.166 319.383 67.5527 320.282 69.3691C321.18 71.166 321.62 73.2852 321.6 75.7266V96H312.987V77.25C312.987 75.2969 312.479 73.7637 311.463 72.6504C310.448 71.5371 309.041 70.9805 307.245 70.9805C305.389 70.9805 303.905 71.5664 302.791 72.7383C301.698 73.9102 301.151 75.5312 301.151 77.6016V96ZM346.296 70.6875H340.32V86.2148C340.32 87.3867 340.573 88.207 341.081 88.6758C341.589 89.1445 342.331 89.3984 343.308 89.4375C344.558 89.4375 345.71 89.3789 346.765 89.2617V96.1172C345.73 96.3125 344.187 96.4102 342.136 96.4102C338.874 96.4102 336.306 95.6582 334.431 94.1543C332.556 92.6504 331.628 90.4141 331.648 87.4453V70.6875H327.253V64.1836H331.648V56.5664H340.32V64.1836H346.296V70.6875ZM368.149 53.5781H385.024C388.071 53.5781 390.649 54.0371 392.759 54.9551C394.868 55.873 396.45 57.1523 397.505 58.793C398.559 60.4141 399.087 62.3086 399.087 64.4766C399.087 66.8789 398.384 68.8613 396.977 70.4238C395.591 71.9863 393.755 73.0312 391.47 73.5586V73.9688C393.11 74.0469 394.634 74.5156 396.04 75.375C397.466 76.2344 398.608 77.4355 399.468 78.9785C400.346 80.502 400.786 82.2695 400.786 84.2812C400.786 86.5664 400.22 88.5879 399.087 90.3457C397.973 92.1035 396.313 93.4902 394.106 94.5059C391.919 95.502 389.262 96 386.137 96H368.149V53.5781ZM384.38 88.7344C386.841 88.7344 388.667 88.2754 389.858 87.3574C391.05 86.4199 391.645 85.1211 391.645 83.4609C391.645 82.2695 391.352 81.2148 390.766 80.2969C390.2 79.3789 389.389 78.666 388.335 78.1582C387.28 77.6309 386.04 77.3672 384.614 77.3672H376.938V88.7344H384.38ZM383.735 71.332C384.966 71.332 386.069 71.1172 387.046 70.6875C388.022 70.2383 388.784 69.6035 389.331 68.7832C389.897 67.9629 390.18 66.9961 390.18 65.8828C390.18 64.3203 389.624 63.0703 388.511 62.1328C387.417 61.1953 385.884 60.7266 383.911 60.7266H376.938V71.332H383.735ZM405.853 87.0938C405.853 83.8125 406.957 81.4102 409.164 79.8867C411.371 78.3633 414.212 77.5039 417.689 77.3086C419.837 77.1719 422.474 77.0352 425.599 76.8984V74.3203C425.56 72.9922 425.101 71.957 424.222 71.2148C423.343 70.4727 422.103 70.1016 420.502 70.1016C419.056 70.1016 417.875 70.4141 416.957 71.0391C416.039 71.6641 415.462 72.5234 415.228 73.6172H406.966C407.142 71.7422 407.787 70.0625 408.9 68.5781C410.033 67.0938 411.605 65.9219 413.617 65.0625C415.629 64.2031 418.002 63.7734 420.736 63.7734C423.158 63.7734 425.384 64.1543 427.416 64.916C429.466 65.6777 431.107 66.8691 432.337 68.4902C433.587 70.0918 434.212 72.1133 434.212 74.5547V96H426.009V91.6055H425.775C424.935 93.1484 423.734 94.3691 422.171 95.2676C420.629 96.1465 418.724 96.5859 416.459 96.5859C414.388 96.5859 412.552 96.2344 410.951 95.5312C409.369 94.8086 408.119 93.7344 407.201 92.3086C406.302 90.8828 405.853 89.1445 405.853 87.0938ZM414.173 86.8594C414.173 88.0508 414.603 88.9785 415.462 89.6426C416.341 90.2871 417.494 90.6094 418.92 90.6094C420.209 90.6094 421.361 90.3457 422.377 89.8184C423.412 89.291 424.212 88.5684 424.779 87.6504C425.345 86.7324 425.619 85.7266 425.599 84.6328V82.3184C424.681 82.3379 423.548 82.3867 422.201 82.4648C420.853 82.543 419.818 82.6211 419.095 82.6992C417.572 82.8555 416.371 83.2852 415.492 83.9883C414.613 84.6914 414.173 85.6484 414.173 86.8594ZM450.705 96H442.034V64.1836H450.295V69.75H450.647C451.389 67.875 452.59 66.4102 454.25 65.3555C455.911 64.3008 457.893 63.7734 460.198 63.7734C462.405 63.7734 464.338 64.252 465.998 65.209C467.659 66.166 468.938 67.5527 469.836 69.3691C470.735 71.166 471.174 73.2852 471.155 75.7266V96H462.541V77.25C462.541 75.2969 462.034 73.7637 461.018 72.6504C460.002 71.5371 458.596 70.9805 456.799 70.9805C454.944 70.9805 453.459 71.5664 452.346 72.7383C451.252 73.9102 450.705 75.5312 450.705 77.6016V96ZM487.765 96H479.093V64.1836H487.355V69.75H487.706C488.448 67.875 489.65 66.4102 491.31 65.3555C492.97 64.3008 494.952 63.7734 497.257 63.7734C499.464 63.7734 501.398 64.252 503.058 65.209C504.718 66.166 505.997 67.5527 506.896 69.3691C507.794 71.166 508.234 73.2852 508.214 75.7266V96H499.601V77.25C499.601 75.2969 499.093 73.7637 498.077 72.6504C497.062 71.5371 495.655 70.9805 493.859 70.9805C492.003 70.9805 490.519 71.5664 489.405 72.7383C488.312 73.9102 487.765 75.5312 487.765 77.6016V96ZM530.566 96.6445C527.344 96.6445 524.551 95.9805 522.188 94.6523C519.844 93.3242 518.037 91.4297 516.768 88.9688C515.498 86.4883 514.863 83.5781 514.863 80.2383C514.863 76.9766 515.488 74.1055 516.738 71.625C518.008 69.125 519.805 67.1914 522.129 65.8242C524.453 64.457 527.148 63.7734 530.215 63.7734C533.066 63.7734 535.615 64.3789 537.861 65.5898C540.127 66.7812 541.904 68.5879 543.193 71.0098C544.502 73.4316 545.156 76.3906 545.156 79.8867V82.3477H523.418C523.418 83.9297 523.711 85.3066 524.297 86.4785C524.902 87.6504 525.752 88.5586 526.846 89.2031C527.959 89.8281 529.258 90.1406 530.742 90.1406C532.168 90.1406 533.398 89.8574 534.434 89.291C535.469 88.7051 536.211 87.9141 536.66 86.918H544.922C544.512 88.8711 543.672 90.5801 542.402 92.0449C541.133 93.5098 539.482 94.6426 537.451 95.4434C535.439 96.2441 533.145 96.6445 530.566 96.6445ZM536.953 76.8984C536.953 75.6289 536.67 74.4961 536.104 73.5C535.557 72.4844 534.785 71.6934 533.789 71.127C532.793 70.5605 531.66 70.2773 530.391 70.2773C529.102 70.2773 527.93 70.5703 526.875 71.1562C525.84 71.7422 525.01 72.543 524.385 73.5586C523.779 74.5742 523.457 75.6875 523.418 76.8984H536.953ZM551.805 64.1836H560.184V69.6914H560.536C561.102 67.7578 562.069 66.2832 563.436 65.2676C564.804 64.2324 566.395 63.7148 568.212 63.7148C569.208 63.7148 570.126 63.8125 570.966 64.0078V71.7422C570.536 71.625 569.96 71.5176 569.237 71.4199C568.514 71.3223 567.86 71.2734 567.274 71.2734C565.985 71.2734 564.823 71.5566 563.788 72.123C562.753 72.6895 561.942 73.4805 561.356 74.4961C560.77 75.4922 560.477 76.625 560.477 77.8945V96H551.805V64.1836ZM609.635 96H600.788V61.957H600.553L590.827 68.0508V60.2578L601.315 53.5781H609.635V96Z" fill="white"/>
</svg>
