<svg width="800" height="150" viewBox="0 0 800 150" fill="none" xmlns="http://www.w3.org/2000/svg">
<rect width="800" height="150" fill="#333333"/>
<path d="M181.074 53.5781H209.551V60.8438H189.863V71.1562H208.086V78.4219H189.863V88.7344H209.609V96H181.074V53.5781ZM235.77 96H226.044L214.911 64.1836H224.052L230.731 87.0352H231.083L237.763 64.1836H246.962L235.77 96ZM265.74 96.6445C262.517 96.6445 259.724 95.9805 257.361 94.6523C255.017 93.3242 253.211 91.4297 251.941 88.9688C250.671 86.4883 250.037 83.5781 250.037 80.2383C250.037 76.9766 250.662 74.1055 251.912 71.625C253.181 69.125 254.978 67.1914 257.302 65.8242C259.627 64.457 262.322 63.7734 265.388 63.7734C268.24 63.7734 270.789 64.3789 273.035 65.5898C275.3 66.7812 277.078 68.5879 278.367 71.0098C279.675 73.4316 280.33 76.3906 280.33 79.8867V82.3477H258.591C258.591 83.9297 258.884 85.3066 259.47 86.4785C260.076 87.6504 260.925 88.5586 262.019 89.2031C263.132 89.8281 264.431 90.1406 265.916 90.1406C267.341 90.1406 268.572 89.8574 269.607 89.291C270.642 88.7051 271.384 87.9141 271.834 86.918H280.095C279.685 88.8711 278.845 90.5801 277.576 92.0449C276.306 93.5098 274.656 94.6426 272.625 95.4434C270.613 96.2441 268.318 96.6445 265.74 96.6445ZM272.127 76.8984C272.127 75.6289 271.843 74.4961 271.277 73.5C270.73 72.4844 269.959 71.6934 268.963 71.127C267.966 70.5605 266.834 70.2773 265.564 70.2773C264.275 70.2773 263.103 70.5703 262.048 71.1562C261.013 71.7422 260.183 72.543 259.558 73.5586C258.953 74.5742 258.63 75.6875 258.591 76.8984H272.127ZM295.651 96H286.979V64.1836H295.241V69.75H295.592C296.334 67.875 297.536 66.4102 299.196 65.3555C300.856 64.3008 302.838 63.7734 305.143 63.7734C307.35 63.7734 309.284 64.252 310.944 65.209C312.604 66.166 313.883 67.5527 314.782 69.3691C315.68 71.166 316.12 73.2852 316.1 75.7266V96H307.487V77.25C307.487 75.2969 306.979 73.7637 305.963 72.6504C304.948 71.5371 303.541 70.9805 301.745 70.9805C299.889 70.9805 298.405 71.5664 297.291 72.7383C296.198 73.9102 295.651 75.5312 295.651 77.6016V96ZM340.796 70.6875H334.82V86.2148C334.82 87.3867 335.073 88.207 335.581 88.6758C336.089 89.1445 336.831 89.3984 337.808 89.4375C339.058 89.4375 340.21 89.3789 341.265 89.2617V96.1172C340.23 96.3125 338.687 96.4102 336.636 96.4102C333.374 96.4102 330.806 95.6582 328.931 94.1543C327.056 92.6504 326.128 90.4141 326.148 87.4453V70.6875H321.753V64.1836H326.148V56.5664H334.82V64.1836H340.796V70.6875ZM362.649 53.5781H379.524C382.571 53.5781 385.149 54.0371 387.259 54.9551C389.368 55.873 390.95 57.1523 392.005 58.793C393.059 60.4141 393.587 62.3086 393.587 64.4766C393.587 66.8789 392.884 68.8613 391.477 70.4238C390.091 71.9863 388.255 73.0312 385.97 73.5586V73.9688C387.61 74.0469 389.134 74.5156 390.54 75.375C391.966 76.2344 393.108 77.4355 393.968 78.9785C394.846 80.502 395.286 82.2695 395.286 84.2812C395.286 86.5664 394.72 88.5879 393.587 90.3457C392.473 92.1035 390.813 93.4902 388.606 94.5059C386.419 95.502 383.762 96 380.637 96H362.649V53.5781ZM378.88 88.7344C381.341 88.7344 383.167 88.2754 384.358 87.3574C385.55 86.4199 386.145 85.1211 386.145 83.4609C386.145 82.2695 385.852 81.2148 385.266 80.2969C384.7 79.3789 383.889 78.666 382.835 78.1582C381.78 77.6309 380.54 77.3672 379.114 77.3672H371.438V88.7344H378.88ZM378.235 71.332C379.466 71.332 380.569 71.1172 381.546 70.6875C382.522 70.2383 383.284 69.6035 383.831 68.7832C384.397 67.9629 384.68 66.9961 384.68 65.8828C384.68 64.3203 384.124 63.0703 383.011 62.1328C381.917 61.1953 380.384 60.7266 378.411 60.7266H371.438V71.332H378.235ZM400.353 87.0938C400.353 83.8125 401.457 81.4102 403.664 79.8867C405.871 78.3633 408.712 77.5039 412.189 77.3086C414.337 77.1719 416.974 77.0352 420.099 76.8984V74.3203C420.06 72.9922 419.601 71.957 418.722 71.2148C417.843 70.4727 416.603 70.1016 415.002 70.1016C413.556 70.1016 412.375 70.4141 411.457 71.0391C410.539 71.6641 409.962 72.5234 409.728 73.6172H401.466C401.642 71.7422 402.287 70.0625 403.4 68.5781C404.533 67.0938 406.105 65.9219 408.117 65.0625C410.129 64.2031 412.502 63.7734 415.236 63.7734C417.658 63.7734 419.884 64.1543 421.916 64.916C423.966 65.6777 425.607 66.8691 426.837 68.4902C428.087 70.0918 428.712 72.1133 428.712 74.5547V96H420.509V91.6055H420.275C419.435 93.1484 418.234 94.3691 416.671 95.2676C415.129 96.1465 413.224 96.5859 410.959 96.5859C408.888 96.5859 407.052 96.2344 405.451 95.5312C403.869 94.8086 402.619 93.7344 401.701 92.3086C400.802 90.8828 400.353 89.1445 400.353 87.0938ZM408.673 86.8594C408.673 88.0508 409.103 88.9785 409.962 89.6426C410.841 90.2871 411.994 90.6094 413.42 90.6094C414.709 90.6094 415.861 90.3457 416.877 89.8184C417.912 89.291 418.712 88.5684 419.279 87.6504C419.845 86.7324 420.119 85.7266 420.099 84.6328V82.3184C419.181 82.3379 418.048 82.3867 416.701 82.4648C415.353 82.543 414.318 82.6211 413.595 82.6992C412.072 82.8555 410.871 83.2852 409.992 83.9883C409.113 84.6914 408.673 85.6484 408.673 86.8594ZM445.205 96H436.534V64.1836H444.795V69.75H445.147C445.889 67.875 447.09 66.4102 448.75 65.3555C450.411 64.3008 452.393 63.7734 454.698 63.7734C456.905 63.7734 458.838 64.252 460.498 65.209C462.159 66.166 463.438 67.5527 464.336 69.3691C465.235 71.166 465.674 73.2852 465.655 75.7266V96H457.041V77.25C457.041 75.2969 456.534 73.7637 455.518 72.6504C454.502 71.5371 453.096 70.9805 451.299 70.9805C449.444 70.9805 447.959 71.5664 446.846 72.7383C445.752 73.9102 445.205 75.5312 445.205 77.6016V96ZM482.265 96H473.593V64.1836H481.855V69.75H482.206C482.948 67.875 484.15 66.4102 485.81 65.3555C487.47 64.3008 489.452 63.7734 491.757 63.7734C493.964 63.7734 495.898 64.252 497.558 65.209C499.218 66.166 500.497 67.5527 501.396 69.3691C502.294 71.166 502.734 73.2852 502.714 75.7266V96H494.101V77.25C494.101 75.2969 493.593 73.7637 492.577 72.6504C491.562 71.5371 490.155 70.9805 488.359 70.9805C486.503 70.9805 485.019 71.5664 483.905 72.7383C482.812 73.9102 482.265 75.5312 482.265 77.6016V96ZM525.066 96.6445C521.844 96.6445 519.051 95.9805 516.688 94.6523C514.344 93.3242 512.537 91.4297 511.268 88.9688C509.998 86.4883 509.363 83.5781 509.363 80.2383C509.363 76.9766 509.988 74.1055 511.238 71.625C512.508 69.125 514.305 67.1914 516.629 65.8242C518.953 64.457 521.648 63.7734 524.715 63.7734C527.566 63.7734 530.115 64.3789 532.361 65.5898C534.627 66.7812 536.404 68.5879 537.693 71.0098C539.002 73.4316 539.656 76.3906 539.656 79.8867V82.3477H517.918C517.918 83.9297 518.211 85.3066 518.797 86.4785C519.402 87.6504 520.252 88.5586 521.346 89.2031C522.459 89.8281 523.758 90.1406 525.242 90.1406C526.668 90.1406 527.898 89.8574 528.934 89.291C529.969 88.7051 530.711 87.9141 531.16 86.918H539.422C539.012 88.8711 538.172 90.5801 536.902 92.0449C535.633 93.5098 533.982 94.6426 531.951 95.4434C529.939 96.2441 527.645 96.6445 525.066 96.6445ZM531.453 76.8984C531.453 75.6289 531.17 74.4961 530.604 73.5C530.057 72.4844 529.285 71.6934 528.289 71.127C527.293 70.5605 526.16 70.2773 524.891 70.2773C523.602 70.2773 522.43 70.5703 521.375 71.1562C520.34 71.7422 519.51 72.543 518.885 73.5586C518.279 74.5742 517.957 75.6875 517.918 76.8984H531.453ZM546.305 64.1836H554.684V69.6914H555.036C555.602 67.7578 556.569 66.2832 557.936 65.2676C559.304 64.2324 560.895 63.7148 562.712 63.7148C563.708 63.7148 564.626 63.8125 565.466 64.0078V71.7422C565.036 71.625 564.46 71.5176 563.737 71.4199C563.014 71.3223 562.36 71.2734 561.774 71.2734C560.485 71.2734 559.323 71.5566 558.288 72.123C557.253 72.6895 556.442 73.4805 555.856 74.4961C555.27 75.4922 554.977 76.625 554.977 77.8945V96H546.305V64.1836ZM585.151 81.5273L603.08 53.5781H614.155V81.4102H619.545V88.5H614.155V96H605.776V88.5H585.151V81.5273ZM605.893 81.4102V63.2461H605.483L594.057 81.0586V81.4102H605.893Z" fill="white"/>
</svg>
