<svg width="800" height="150" viewBox="0 0 800 150" fill="none" xmlns="http://www.w3.org/2000/svg">
<rect width="800" height="150" fill="#666666"/>
<path d="M181.574 53.5781H210.051V60.8438H190.363V71.1562H208.586V78.4219H190.363V88.7344H210.109V96H181.574V53.5781ZM236.27 96H226.544L215.411 64.1836H224.552L231.231 87.0352H231.583L238.263 64.1836H247.462L236.27 96ZM266.24 96.6445C263.017 96.6445 260.224 95.9805 257.861 94.6523C255.517 93.3242 253.711 91.4297 252.441 88.9688C251.171 86.4883 250.537 83.5781 250.537 80.2383C250.537 76.9766 251.162 74.1055 252.412 71.625C253.681 69.125 255.478 67.1914 257.802 65.8242C260.127 64.457 262.822 63.7734 265.888 63.7734C268.74 63.7734 271.289 64.3789 273.535 65.5898C275.8 66.7812 277.578 68.5879 278.867 71.0098C280.175 73.4316 280.83 76.3906 280.83 79.8867V82.3477H259.091C259.091 83.9297 259.384 85.3066 259.97 86.4785C260.576 87.6504 261.425 88.5586 262.519 89.2031C263.632 89.8281 264.931 90.1406 266.416 90.1406C267.841 90.1406 269.072 89.8574 270.107 89.291C271.142 88.7051 271.884 87.9141 272.334 86.918H280.595C280.185 88.8711 279.345 90.5801 278.076 92.0449C276.806 93.5098 275.156 94.6426 273.125 95.4434C271.113 96.2441 268.818 96.6445 266.24 96.6445ZM272.627 76.8984C272.627 75.6289 272.343 74.4961 271.777 73.5C271.23 72.4844 270.459 71.6934 269.463 71.127C268.466 70.5605 267.334 70.2773 266.064 70.2773C264.775 70.2773 263.603 70.5703 262.548 71.1562C261.513 71.7422 260.683 72.543 260.058 73.5586C259.453 74.5742 259.13 75.6875 259.091 76.8984H272.627ZM296.151 96H287.479V64.1836H295.741V69.75H296.092C296.834 67.875 298.036 66.4102 299.696 65.3555C301.356 64.3008 303.338 63.7734 305.643 63.7734C307.85 63.7734 309.784 64.252 311.444 65.209C313.104 66.166 314.383 67.5527 315.282 69.3691C316.18 71.166 316.62 73.2852 316.6 75.7266V96H307.987V77.25C307.987 75.2969 307.479 73.7637 306.463 72.6504C305.448 71.5371 304.041 70.9805 302.245 70.9805C300.389 70.9805 298.905 71.5664 297.791 72.7383C296.698 73.9102 296.151 75.5312 296.151 77.6016V96ZM341.296 70.6875H335.32V86.2148C335.32 87.3867 335.573 88.207 336.081 88.6758C336.589 89.1445 337.331 89.3984 338.308 89.4375C339.558 89.4375 340.71 89.3789 341.765 89.2617V96.1172C340.73 96.3125 339.187 96.4102 337.136 96.4102C333.874 96.4102 331.306 95.6582 329.431 94.1543C327.556 92.6504 326.628 90.4141 326.648 87.4453V70.6875H322.253V64.1836H326.648V56.5664H335.32V64.1836H341.296V70.6875ZM363.149 53.5781H380.024C383.071 53.5781 385.649 54.0371 387.759 54.9551C389.868 55.873 391.45 57.1523 392.505 58.793C393.559 60.4141 394.087 62.3086 394.087 64.4766C394.087 66.8789 393.384 68.8613 391.977 70.4238C390.591 71.9863 388.755 73.0312 386.47 73.5586V73.9688C388.11 74.0469 389.634 74.5156 391.04 75.375C392.466 76.2344 393.608 77.4355 394.468 78.9785C395.346 80.502 395.786 82.2695 395.786 84.2812C395.786 86.5664 395.22 88.5879 394.087 90.3457C392.973 92.1035 391.313 93.4902 389.106 94.5059C386.919 95.502 384.262 96 381.137 96H363.149V53.5781ZM379.38 88.7344C381.841 88.7344 383.667 88.2754 384.858 87.3574C386.05 86.4199 386.645 85.1211 386.645 83.4609C386.645 82.2695 386.352 81.2148 385.766 80.2969C385.2 79.3789 384.389 78.666 383.335 78.1582C382.28 77.6309 381.04 77.3672 379.614 77.3672H371.938V88.7344H379.38ZM378.735 71.332C379.966 71.332 381.069 71.1172 382.046 70.6875C383.022 70.2383 383.784 69.6035 384.331 68.7832C384.897 67.9629 385.18 66.9961 385.18 65.8828C385.18 64.3203 384.624 63.0703 383.511 62.1328C382.417 61.1953 380.884 60.7266 378.911 60.7266H371.938V71.332H378.735ZM400.853 87.0938C400.853 83.8125 401.957 81.4102 404.164 79.8867C406.371 78.3633 409.212 77.5039 412.689 77.3086C414.837 77.1719 417.474 77.0352 420.599 76.8984V74.3203C420.56 72.9922 420.101 71.957 419.222 71.2148C418.343 70.4727 417.103 70.1016 415.502 70.1016C414.056 70.1016 412.875 70.4141 411.957 71.0391C411.039 71.6641 410.462 72.5234 410.228 73.6172H401.966C402.142 71.7422 402.787 70.0625 403.9 68.5781C405.033 67.0938 406.605 65.9219 408.617 65.0625C410.629 64.2031 413.002 63.7734 415.736 63.7734C418.158 63.7734 420.384 64.1543 422.416 64.916C424.466 65.6777 426.107 66.8691 427.337 68.4902C428.587 70.0918 429.212 72.1133 429.212 74.5547V96H421.009V91.6055H420.775C419.935 93.1484 418.734 94.3691 417.171 95.2676C415.629 96.1465 413.724 96.5859 411.459 96.5859C409.388 96.5859 407.552 96.2344 405.951 95.5312C404.369 94.8086 403.119 93.7344 402.201 92.3086C401.302 90.8828 400.853 89.1445 400.853 87.0938ZM409.173 86.8594C409.173 88.0508 409.603 88.9785 410.462 89.6426C411.341 90.2871 412.494 90.6094 413.92 90.6094C415.209 90.6094 416.361 90.3457 417.377 89.8184C418.412 89.291 419.212 88.5684 419.779 87.6504C420.345 86.7324 420.619 85.7266 420.599 84.6328V82.3184C419.681 82.3379 418.548 82.3867 417.201 82.4648C415.853 82.543 414.818 82.6211 414.095 82.6992C412.572 82.8555 411.371 83.2852 410.492 83.9883C409.613 84.6914 409.173 85.6484 409.173 86.8594ZM445.705 96H437.034V64.1836H445.295V69.75H445.647C446.389 67.875 447.59 66.4102 449.25 65.3555C450.911 64.3008 452.893 63.7734 455.198 63.7734C457.405 63.7734 459.338 64.252 460.998 65.209C462.659 66.166 463.938 67.5527 464.836 69.3691C465.735 71.166 466.174 73.2852 466.155 75.7266V96H457.541V77.25C457.541 75.2969 457.034 73.7637 456.018 72.6504C455.002 71.5371 453.596 70.9805 451.799 70.9805C449.944 70.9805 448.459 71.5664 447.346 72.7383C446.252 73.9102 445.705 75.5312 445.705 77.6016V96ZM482.765 96H474.093V64.1836H482.355V69.75H482.706C483.448 67.875 484.65 66.4102 486.31 65.3555C487.97 64.3008 489.952 63.7734 492.257 63.7734C494.464 63.7734 496.398 64.252 498.058 65.209C499.718 66.166 500.997 67.5527 501.896 69.3691C502.794 71.166 503.234 73.2852 503.214 75.7266V96H494.601V77.25C494.601 75.2969 494.093 73.7637 493.077 72.6504C492.062 71.5371 490.655 70.9805 488.859 70.9805C487.003 70.9805 485.519 71.5664 484.405 72.7383C483.312 73.9102 482.765 75.5312 482.765 77.6016V96ZM525.566 96.6445C522.344 96.6445 519.551 95.9805 517.188 94.6523C514.844 93.3242 513.037 91.4297 511.768 88.9688C510.498 86.4883 509.863 83.5781 509.863 80.2383C509.863 76.9766 510.488 74.1055 511.738 71.625C513.008 69.125 514.805 67.1914 517.129 65.8242C519.453 64.457 522.148 63.7734 525.215 63.7734C528.066 63.7734 530.615 64.3789 532.861 65.5898C535.127 66.7812 536.904 68.5879 538.193 71.0098C539.502 73.4316 540.156 76.3906 540.156 79.8867V82.3477H518.418C518.418 83.9297 518.711 85.3066 519.297 86.4785C519.902 87.6504 520.752 88.5586 521.846 89.2031C522.959 89.8281 524.258 90.1406 525.742 90.1406C527.168 90.1406 528.398 89.8574 529.434 89.291C530.469 88.7051 531.211 87.9141 531.66 86.918H539.922C539.512 88.8711 538.672 90.5801 537.402 92.0449C536.133 93.5098 534.482 94.6426 532.451 95.4434C530.439 96.2441 528.145 96.6445 525.566 96.6445ZM531.953 76.8984C531.953 75.6289 531.67 74.4961 531.104 73.5C530.557 72.4844 529.785 71.6934 528.789 71.127C527.793 70.5605 526.66 70.2773 525.391 70.2773C524.102 70.2773 522.93 70.5703 521.875 71.1562C520.84 71.7422 520.01 72.543 519.385 73.5586C518.779 74.5742 518.457 75.6875 518.418 76.8984H531.953ZM546.805 64.1836H555.184V69.6914H555.536C556.102 67.7578 557.069 66.2832 558.436 65.2676C559.804 64.2324 561.395 63.7148 563.212 63.7148C564.208 63.7148 565.126 63.8125 565.966 64.0078V71.7422C565.536 71.625 564.96 71.5176 564.237 71.4199C563.514 71.3223 562.86 71.2734 562.274 71.2734C560.985 71.2734 559.823 71.5566 558.788 72.123C557.753 72.6895 556.942 73.4805 556.356 74.4961C555.77 75.4922 555.477 76.625 555.477 77.8945V96H546.805V64.1836ZM602.057 96.5859C598.991 96.5859 596.237 96.0586 593.795 95.0039C591.373 93.9297 589.459 92.4453 588.053 90.5508C586.666 88.6367 585.944 86.4688 585.885 84.0469H594.791C594.85 85.082 595.202 86 595.846 86.8008C596.491 87.6016 597.36 88.2266 598.454 88.6758C599.547 89.1055 600.768 89.3203 602.116 89.3203C603.502 89.3203 604.743 89.0762 605.836 88.5879C606.95 88.0801 607.809 87.3867 608.414 86.5078C609.039 85.6289 609.342 84.6328 609.323 83.5195C609.342 82.3672 609.02 81.3418 608.356 80.4434C607.711 79.5449 606.784 78.8516 605.573 78.3633C604.362 77.8555 602.936 77.6016 601.295 77.6016H597.37V71.0977H601.295C602.663 71.0977 603.883 70.8633 604.957 70.3945C606.032 69.9258 606.871 69.2617 607.477 68.4023C608.082 67.543 608.385 66.5664 608.385 65.4727C608.385 64.3984 608.121 63.4512 607.594 62.6309C607.086 61.8105 606.364 61.1758 605.426 60.7266C604.489 60.2578 603.405 60.0234 602.174 60.0234C600.924 60.0234 599.772 60.248 598.717 60.6973C597.682 61.127 596.842 61.752 596.198 62.5723C595.573 63.373 595.241 64.3008 595.202 65.3555H586.764C586.803 62.9531 587.496 60.8145 588.844 58.9395C590.192 57.0645 592.028 55.6094 594.352 54.5742C596.696 53.5195 599.303 52.9922 602.174 52.9922C605.065 52.9922 607.623 53.5195 609.85 54.5742C612.096 55.6094 613.834 57.0449 615.065 58.8809C616.295 60.6973 616.901 62.7188 616.881 64.9453C616.901 66.4883 616.569 67.8945 615.885 69.1641C615.221 70.4141 614.274 71.4492 613.043 72.2695C611.832 73.0898 610.436 73.6367 608.854 73.9102V74.2617C610.905 74.5156 612.653 75.082 614.098 75.9609C615.543 76.8398 616.637 77.9824 617.379 79.3887C618.121 80.7754 618.483 82.3477 618.463 84.1055C618.483 86.4883 617.789 88.6367 616.383 90.5508C614.977 92.4453 613.024 93.9297 610.524 95.0039C608.024 96.0586 605.202 96.5859 602.057 96.5859Z" fill="white"/>
</svg>
