<svg width="209" height="60" viewBox="0 0 209 60" fill="none" xmlns="http://www.w3.org/2000/svg">
<path d="M103.594 43.6484H71.0547V39.4688H84.7266V33.0625H73.75V29.1562H78.5156V19H73.5938V15.0156H100.859V19H95.8594V29.1562H100.703V33.0625H89.6875V39.4688H103.594V43.6484ZM90.9375 29.1562V19H83.5156V29.1562H90.9375ZM138.125 35.9922H124.219V47.6328H119.297V35.9922H105.586V31.9297H138.125V35.9922ZM121.758 13.2188C124.284 13.2188 126.53 13.5508 128.496 14.2148C130.462 14.8789 131.992 15.8229 133.086 17.0469C134.18 18.2708 134.727 19.6901 134.727 21.3047C134.727 22.8932 134.18 24.2865 133.086 25.4844C131.992 26.6823 130.462 27.6068 128.496 28.2578C126.53 28.9089 124.284 29.2344 121.758 29.2344C119.232 29.2344 116.992 28.9089 115.039 28.2578C113.086 27.6068 111.562 26.6823 110.469 25.4844C109.388 24.2865 108.854 22.8932 108.867 21.3047C108.854 19.6901 109.388 18.2708 110.469 17.0469C111.562 15.8229 113.086 14.8789 115.039 14.2148C116.992 13.5508 119.232 13.2188 121.758 13.2188ZM121.758 17.2031C120.169 17.2031 118.789 17.3659 117.617 17.6914C116.445 18.0039 115.54 18.4727 114.902 19.0977C114.277 19.7096 113.971 20.4453 113.984 21.3047C113.971 22.138 114.277 22.8542 114.902 23.4531C115.54 24.0521 116.445 24.5078 117.617 24.8203C118.789 25.1328 120.169 25.2891 121.758 25.2891C123.359 25.2891 124.746 25.1328 125.918 24.8203C127.09 24.5078 127.988 24.0521 128.613 23.4531C129.251 22.8542 129.57 22.138 129.57 21.3047C129.57 20.4453 129.251 19.7096 128.613 19.0977C127.988 18.4727 127.09 18.0039 125.918 17.6914C124.746 17.3659 123.359 17.2031 121.758 17.2031ZM156.016 16.0312C155.99 19.6901 155.638 22.8411 154.961 25.4844H158.789V12.8281H163.438V46.0312H158.789V29.5078H153.535C152.533 31.6823 151.159 33.6875 149.414 35.5234C147.682 37.3594 145.495 39.026 142.852 40.5234L140.078 37.125C142.292 35.8359 144.128 34.4557 145.586 32.9844C147.057 31.5 148.223 29.8789 149.082 28.1211L140.82 28.9609L140.273 24.7422L150.488 24.1953C150.788 22.9844 151.003 21.5911 151.133 20.0156H142.031V16.0312H156.016ZM171.016 47.5938H166.328V12.0469H171.016V47.5938ZM184.57 14.5469C186.159 14.5469 187.598 14.9701 188.887 15.8164C190.176 16.6497 191.23 17.8477 192.051 19.4102C192.884 20.9596 193.418 22.7891 193.652 24.8984H199.844V12.0469H204.766V47.6719H199.844V28.8828H193.711C193.542 31.1354 193.047 33.0951 192.227 34.7617C191.406 36.4154 190.339 37.6849 189.023 38.5703C187.708 39.4557 186.224 39.8984 184.57 39.8984C182.773 39.8984 181.172 39.3841 179.766 38.3555C178.372 37.3138 177.285 35.8359 176.504 33.9219C175.723 31.9948 175.339 29.7552 175.352 27.2031C175.339 24.6641 175.723 22.444 176.504 20.543C177.285 18.6289 178.372 17.151 179.766 16.1094C181.172 15.0677 182.773 14.5469 184.57 14.5469ZM184.57 19.0391C183.685 19.0391 182.904 19.3581 182.227 19.9961C181.549 20.6211 181.022 21.5521 180.645 22.7891C180.28 24.013 180.104 25.4844 180.117 27.2031C180.104 28.9349 180.28 30.4128 180.645 31.6367C181.022 32.8607 181.543 33.7917 182.207 34.4297C182.884 35.0547 183.672 35.3672 184.57 35.3672C185.469 35.3672 186.25 35.0547 186.914 34.4297C187.591 33.8047 188.112 32.8802 188.477 31.6562C188.841 30.4323 189.023 28.9479 189.023 27.2031C189.023 25.4714 188.841 23.9935 188.477 22.7695C188.112 21.5456 187.591 20.6211 186.914 19.9961C186.25 19.3581 185.469 19.0391 184.57 19.0391Z" fill="#00C950"/>
<path d="M17.0034 20.46C11.7112 21.9122 8.48342 27.1463 9.41717 30.72C10.3528 34.2947 13.8853 30.2231 19.1775 28.77C24.4678 27.3159 29.5125 29.0334 28.5787 25.4588C27.644 21.8841 22.2956 19.0059 17.0034 20.46ZM12.9075 18.7941C14.5022 18.2016 14.7056 14.6531 13.8562 12.2606C13.0069 9.87001 11.025 8.41408 9.43029 9.00845C7.83654 9.60376 7.23279 12.0244 8.08217 14.415C8.93154 16.8056 11.3119 19.3894 12.9075 18.7941ZM19.4137 16.9481C21.104 16.7963 22.1953 13.4241 21.9787 10.8872C21.7631 8.3522 20.2172 6.42189 18.5269 6.57095C16.8365 6.72376 15.6403 8.90158 15.8569 11.4366C16.0734 13.9716 17.7215 17.1 19.4137 16.9481ZM26.8856 9.52876C25.1897 9.52876 23.8153 11.5913 23.8153 14.1356C23.8153 16.6819 25.1906 19.9435 26.8856 19.9435C28.5825 19.9435 29.9569 16.6819 29.9569 14.1356C29.9578 11.5903 28.5825 9.52876 26.8856 9.52876ZM3.11061 16.0566C1.64061 16.9247 1.45498 19.4166 2.69904 21.6216C3.94029 23.8247 6.72373 25.9453 8.19279 25.0763C9.66186 24.2072 9.26248 20.6766 8.02029 18.4734C6.77811 16.2684 4.57873 15.1875 3.11061 16.0566ZM42.9984 41.7459C37.7062 40.2919 32.3559 43.1709 31.4222 46.7447C30.4865 50.3194 35.5331 48.6019 40.8244 50.056C46.1156 51.51 49.6481 55.5806 50.5819 52.0059C51.5175 48.4322 48.2887 43.1991 42.9984 41.7459ZM47.0944 40.0828C48.6872 40.6753 51.0694 38.0925 51.9187 35.701C52.7681 33.3094 52.1644 30.8888 50.5706 30.2944C48.9759 29.6991 46.9959 31.1559 46.1465 33.5475C45.2972 35.9391 45.4997 39.4875 47.0944 40.0828ZM40.589 38.2331C42.2794 38.385 43.9275 35.2575 44.1431 32.7225C44.3587 30.1875 43.1653 28.0088 41.475 27.8569C39.7847 27.7069 38.2397 29.6381 38.0212 32.1741C37.8056 34.71 38.8987 38.0813 40.589 38.2331ZM33.1144 41.2294C34.8122 41.2294 36.1865 37.9678 36.1865 35.4216C36.1865 32.8772 34.8112 30.8147 33.1144 30.8147C31.4175 30.8147 30.0422 32.8772 30.0422 35.4234C30.0422 37.9678 31.4194 41.2294 33.1144 41.2294ZM56.8903 37.3425C55.4203 36.4735 53.2228 37.5544 51.9815 39.7585C50.7403 41.9625 50.34 45.4931 51.8072 46.3622C53.2772 47.2313 56.0606 45.1106 57.3019 42.9075C58.5431 40.7044 58.3584 38.2116 56.8903 37.3425Z" fill="#FF8904"/>
</svg>




