<svg width="12" height="12" viewBox="0 0 12 12" fill="none" xmlns="http://www.w3.org/2000/svg">
<path d="M10.5 2.5L1.49996 2.5C1.40884 2.50029 1.31952 2.52542 1.24162 2.57269C1.16372 2.61996 1.10019 2.68758 1.05786 2.76828C1.01553 2.84897 0.996015 2.93968 1.00141 3.03064C1.0068 3.1216 1.03689 3.20937 1.08846 3.2845L5.58846 9.7845C5.77496 10.054 6.22396 10.054 6.41096 9.7845L10.911 3.2845C10.963 3.20953 10.9936 3.12172 10.9993 3.0306C11.005 2.93949 10.9856 2.84856 10.9432 2.7677C10.9008 2.68683 10.8371 2.61913 10.759 2.57193C10.6808 2.52473 10.5912 2.49986 10.5 2.5Z" fill="#333333"/>
</svg>
