<svg width="40" height="40" viewBox="0 0 40 40" fill="none" xmlns="http://www.w3.org/2000/svg">
<circle cx="20" cy="20" r="20" fill="#00C950"/>
<path d="M16.6667 25.3333C14.2444 25.3333 12.1947 24.4942 10.5173 22.816C8.84 21.1378 8.00089 19.088 8 16.6667C7.99911 14.2453 8.83822 12.1956 10.5173 10.5173C12.1964 8.83911 14.2462 8 16.6667 8C19.0871 8 21.1373 8.83911 22.8173 10.5173C24.4973 12.1956 25.336 14.2453 25.3333 16.6667C25.3333 17.6444 25.1778 18.5667 24.8667 19.4333C24.5556 20.3 24.1333 21.0667 23.6 21.7333L31.0667 29.2C31.3111 29.4444 31.4333 29.7556 31.4333 30.1333C31.4333 30.5111 31.3111 30.8222 31.0667 31.0667C30.8222 31.3111 30.5111 31.4333 30.1333 31.4333C29.7556 31.4333 29.4444 31.3111 29.2 31.0667L21.7333 23.6C21.0667 24.1333 20.3 24.5556 19.4333 24.8667C18.5667 25.1778 17.6444 25.3333 16.6667 25.3333ZM16.6667 22.6667C18.3333 22.6667 19.7502 22.0836 20.9173 20.9173C22.0844 19.7511 22.6676 18.3342 22.6667 16.6667C22.6658 14.9991 22.0827 13.5827 20.9173 12.4173C19.752 11.252 18.3351 10.6684 16.6667 10.6667C14.9982 10.6649 13.5818 11.2484 12.4173 12.4173C11.2529 13.5862 10.6693 15.0027 10.6667 16.6667C10.664 18.3307 11.2476 19.7476 12.4173 20.9173C13.5871 22.0871 15.0036 22.6702 16.6667 22.6667Z" fill="white"/>
</svg>
