<svg width="40" height="40" viewBox="0 0 40 40" fill="none" xmlns="http://www.w3.org/2000/svg">
<path d="M26.6667 5C31.2667 5 35 8.73333 35 13.3333V26.6667C35 31.2667 31.2667 35 26.6667 35H13.3333C8.73333 35 5 31.2667 5 26.6667V13.3333C5 8.73333 8.73333 5 13.3333 5H20H26.6667Z" stroke="#333333" stroke-width="2" stroke-linecap="round" stroke-linejoin="round"/>
<path d="M19.9999 13.3333C23.6833 13.3333 26.6666 16.3166 26.6666 20C26.6666 23.6833 23.6833 26.6666 19.9999 26.6666C16.3166 26.6666 13.3333 23.6833 13.3333 20C13.3333 16.3166 16.3166 13.3333 19.9999 13.3333Z" stroke="#333333" stroke-width="2" stroke-linecap="round" stroke-linejoin="round"/>
<path d="M28.3333 14.1667C29.714 14.1667 30.8333 13.0474 30.8333 11.6667C30.8333 10.286 29.714 9.16669 28.3333 9.16669C26.9525 9.16669 25.8333 10.286 25.8333 11.6667C25.8333 13.0474 26.9525 14.1667 28.3333 14.1667Z" fill="#333333"/>
</svg>
