<svg width="40" height="40" viewBox="0 0 40 40" fill="none" xmlns="http://www.w3.org/2000/svg">
<path d="M16.6666 25L25.3166 20L16.6666 15V25ZM35.9333 11.95C36.1499 12.7333 36.2999 13.7833 36.3999 15.1166C36.5166 16.45 36.5666 17.6 36.5666 18.6L36.6666 20C36.6666 23.65 36.3999 26.3333 35.9333 28.05C35.5166 29.55 34.5499 30.5166 33.0499 30.9333C32.2666 31.15 30.8333 31.3 28.6333 31.4C26.4666 31.5166 24.4833 31.5666 22.6499 31.5666L19.9999 31.6666C13.0166 31.6666 8.66659 31.4 6.94992 30.9333C5.44992 30.5166 4.48325 29.55 4.06659 28.05C3.84992 27.2666 3.69992 26.2166 3.59992 24.8833C3.48325 23.55 3.43325 22.4 3.43325 21.4L3.33325 20C3.33325 16.35 3.59992 13.6666 4.06659 11.95C4.48325 10.45 5.44992 9.48331 6.94992 9.06665C7.73325 8.84998 9.16659 8.69998 11.3666 8.59998C13.5333 8.48331 15.5166 8.43331 17.3499 8.43331L19.9999 8.33331C26.9833 8.33331 31.3333 8.59998 33.0499 9.06665C34.5499 9.48331 35.5166 10.45 35.9333 11.95Z" fill="#333333"/>
</svg>
