<svg width="32" height="32" viewBox="0 0 32 32" fill="none" xmlns="http://www.w3.org/2000/svg">
<path d="M9.0685 10.912C6.246 11.6865 4.5245 14.478 5.0225 16.384C5.5215 18.2905 7.4055 16.119 10.228 15.344C13.0495 14.5685 15.74 15.4845 15.242 13.578C14.7435 11.6715 11.891 10.1365 9.0685 10.912ZM6.884 10.0235C7.7345 9.70749 7.843 7.81499 7.39 6.53899C6.937 5.26399 5.88 4.48749 5.0295 4.80449C4.1795 5.12199 3.8575 6.41299 4.3105 7.68799C4.7635 8.96299 6.033 10.341 6.884 10.0235ZM10.354 9.03899C11.2555 8.95799 11.8375 7.15949 11.722 5.80649C11.607 4.45449 10.7825 3.42499 9.881 3.50449C8.9795 3.58599 8.3415 4.74749 8.457 6.09949C8.5725 7.45149 9.4515 9.11999 10.354 9.03899ZM14.339 5.08199C13.4345 5.08199 12.7015 6.18199 12.7015 7.53899C12.7015 8.89699 13.435 10.6365 14.339 10.6365C15.244 10.6365 15.977 8.89699 15.977 7.53899C15.9775 6.18149 15.244 5.08199 14.339 5.08199ZM1.659 8.56349C0.874998 9.02649 0.775998 10.3555 1.4395 11.5315C2.1015 12.7065 3.586 13.8375 4.3695 13.374C5.153 12.9105 4.94 11.0275 4.2775 9.85249C3.615 8.67649 2.442 8.09999 1.659 8.56349ZM22.9325 22.2645C20.11 21.489 17.2565 23.0245 16.7585 24.9305C16.2595 26.837 18.951 25.921 21.773 26.6965C24.595 27.472 26.479 29.643 26.977 27.7365C27.476 25.8305 25.754 23.0395 22.9325 22.2645ZM25.117 21.3775C25.9665 21.6935 27.237 20.316 27.69 19.0405C28.143 17.765 27.821 16.474 26.971 16.157C26.1205 15.8395 25.0645 16.6165 24.6115 17.892C24.1585 19.1675 24.2665 21.06 25.117 21.3775ZM21.6475 20.391C22.549 20.472 23.428 18.804 23.543 17.452C23.658 16.1 23.0215 14.938 22.12 14.857C21.2185 14.777 20.3945 15.807 20.278 17.1595C20.163 18.512 20.746 20.31 21.6475 20.391ZM17.661 21.989C18.5665 21.989 19.2995 20.2495 19.2995 18.8915C19.2995 17.5345 18.566 16.4345 17.661 16.4345C16.756 16.4345 16.0225 17.5345 16.0225 18.8925C16.0225 20.2495 16.757 21.989 17.661 21.989ZM30.3415 19.916C29.5575 19.4525 28.3855 20.029 27.7235 21.2045C27.0615 22.38 26.848 24.263 27.6305 24.7265C28.4145 25.19 29.899 24.059 30.561 22.884C31.223 21.709 31.1245 20.3795 30.3415 19.916Z" fill="#FF8904"/>
</svg>
